
<svg version="1.1" xmlns="http://www.w3.org/2000/svg" width="512" height="512" viewBox="0 0 512 512" preserveAspectRatio="xMidYMid meet">
<path d="M0 0 C2.35854249 -0.00435324 4.71708356 -0.00953843 7.07562256 -0.01548767 C13.45183996 -0.02882391 19.82799788 -0.02946227 26.20422649 -0.02692437 C30.19568696 -0.0261216 34.18713824 -0.02827327 38.1785965 -0.03191185 C38.84356426 -0.03250704 39.50853202 -0.03310223 40.19365032 -0.03371545 C41.54504695 -0.03492735 42.89644357 -0.03614149 44.2478402 -0.03735783 C56.8908547 -0.04820729 69.53384247 -0.04608338 82.17685845 -0.03997298 C93.70733087 -0.03480784 105.23771869 -0.04605326 116.76817438 -0.0650712 C128.64623634 -0.0845102 140.52425841 -0.09269491 152.40233636 -0.08894795 C159.05545607 -0.08704485 165.70851427 -0.08970554 172.36162567 -0.10366249 C178.62278587 -0.11630684 184.88377777 -0.11423452 191.14493561 -0.1012516 C193.43086302 -0.0989005 195.71680253 -0.10156728 198.00271606 -0.10987473 C214.41540772 -0.16517818 229.75954263 1.06471707 245.51660156 5.9621582 C246.34522705 6.21779541 247.17385254 6.47343262 248.02758789 6.73681641 C267.53470895 12.96091447 285.13860443 22.77342859 300.57910156 36.2746582 C301.08393066 36.71390625 301.58875977 37.1531543 302.10888672 37.60571289 C313.78948281 47.84139395 323.00716918 59.35157383 331.57910156 72.2746582 C332.11277344 73.05969727 332.64644531 73.84473633 333.19628906 74.65356445 C340.53045873 86.05126056 345.20442609 99.19891036 348.95410156 112.1496582 C349.19257813 112.96797119 349.43105469 113.78628418 349.67675781 114.62939453 C353.72934846 129.32149973 353.87226304 143.56494085 353.85375977 158.69555664 C353.85811301 161.05409913 353.86329819 163.4126402 353.86924744 165.7711792 C353.88258367 172.1473966 353.88322203 178.52355452 353.88068414 184.89978313 C353.87988136 188.8912436 353.88203303 192.88269488 353.88567162 196.87415314 C353.8862668 197.5391209 353.88686199 198.20408866 353.88747522 198.88920696 C353.88868712 200.24060359 353.88990125 201.59200021 353.8911176 202.94339684 C353.90196705 215.58641134 353.89984315 228.22939911 353.89373275 240.8724151 C353.88856761 252.40288751 353.89981302 263.93327533 353.91883097 275.46373102 C353.93826996 287.34179298 353.94645468 299.21981505 353.94270772 311.097893 C353.94080462 317.75101271 353.94346531 324.40407091 353.95742226 331.05718231 C353.97006661 337.31834251 353.96799429 343.57933441 353.95501137 349.84049225 C353.95266027 352.12641967 353.95532705 354.41235917 353.96363449 356.69827271 C354.01893794 373.11096436 352.78904269 388.45509927 347.89160156 404.2121582 C347.63596436 405.04078369 347.38032715 405.86940918 347.11694336 406.72314453 C340.89284529 426.23026559 331.08033117 443.83416107 317.57910156 459.2746582 C317.13985352 459.7794873 316.70060547 460.28431641 316.24804688 460.80444336 C306.01236582 472.48503945 294.50218594 481.70272582 281.57910156 490.2746582 C280.7940625 490.80833008 280.00902344 491.34200195 279.20019531 491.8918457 C267.80249921 499.22601537 254.6548494 503.89998274 241.70410156 507.6496582 C240.88578857 507.88813477 240.06747559 508.12661133 239.22436523 508.37231445 C224.53226004 512.4249051 210.28881891 512.56781968 195.15820312 512.54931641 C192.79966064 512.55366965 190.44111957 512.55885483 188.08258057 512.56480408 C181.70636317 512.57814031 175.33020525 512.57877867 168.95397663 512.57624078 C164.96251617 512.575438 160.97106489 512.57758967 156.97960663 512.58122826 C156.31463887 512.58182345 155.6496711 512.58241863 154.9645528 512.58303186 C153.61315618 512.58424376 152.26175955 512.58545789 150.91036293 512.58667424 C138.26734842 512.59752369 125.62436066 512.59539979 112.98134467 512.58928939 C101.45087226 512.58412425 89.92048443 512.59536966 78.39002874 512.61438761 C66.51196678 512.6338266 54.63394471 512.64201132 42.75586677 512.63826436 C36.10274705 512.63636126 29.44968885 512.63902195 22.79657745 512.6529789 C16.53541725 512.66562325 10.27442536 512.66355093 4.01326752 512.65056801 C1.7273401 512.64821691 -0.55859941 512.65088369 -2.84451294 512.65919113 C-19.25720459 512.71449458 -34.6013395 511.48459933 -50.35839844 506.5871582 C-51.18702393 506.331521 -52.01564941 506.07588379 -52.86938477 505.8125 C-72.37650582 499.58840193 -89.9804013 489.77588781 -105.42089844 476.2746582 C-105.92572754 475.83541016 -106.43055664 475.39616211 -106.95068359 474.94360352 C-118.63127968 464.70792246 -127.84896605 453.19774258 -136.42089844 440.2746582 C-137.22140625 439.09709961 -137.22140625 439.09709961 -138.03808594 437.89575195 C-145.37225561 426.49805585 -150.04622297 413.35040604 -153.79589844 400.3996582 C-154.15361328 399.17218872 -154.15361328 399.17218872 -154.51855469 397.91992188 C-158.57114534 383.22781668 -158.71405991 368.98437555 -158.69555664 353.85375977 C-158.69990988 351.49521728 -158.70509507 349.13667621 -158.71104431 346.77813721 C-158.72438055 340.40191981 -158.72501891 334.02576189 -158.72248101 327.64953327 C-158.72167824 323.65807281 -158.72382991 319.66662153 -158.72746849 315.67516327 C-158.72806368 315.01019551 -158.72865887 314.34522775 -158.72927209 313.66010945 C-158.73048399 312.30871282 -158.73169813 310.95731619 -158.73291447 309.60591957 C-158.74376393 296.96290506 -158.74164003 284.3199173 -158.73552962 271.67690131 C-158.73036448 260.1464289 -158.7416099 248.61604107 -158.76062784 237.08558539 C-158.78006684 225.20752342 -158.78825155 213.32950136 -158.78450459 201.45142341 C-158.78260149 194.79830369 -158.78526219 188.14524549 -158.79921913 181.49213409 C-158.81186348 175.23097389 -158.80979117 168.969982 -158.79680824 162.70882416 C-158.79445714 160.42289674 -158.79712392 158.13695723 -158.80543137 155.8510437 C-158.86073482 139.43835205 -157.63083957 124.09421714 -152.73339844 108.3371582 C-152.34994263 107.09421997 -152.34994263 107.09421997 -151.95874023 105.82617188 C-145.73464217 86.31905082 -135.92212805 68.71515534 -122.42089844 53.2746582 C-121.76202637 52.51741455 -121.76202637 52.51741455 -121.08984375 51.74487305 C-110.85416269 40.06427696 -99.34398281 30.84659059 -86.42089844 22.2746582 C-85.63585937 21.74098633 -84.85082031 21.20731445 -84.04199219 20.6574707 C-72.64429608 13.32330103 -59.49664628 8.64933367 -46.54589844 4.8996582 C-45.72758545 4.66118164 -44.90927246 4.42270508 -44.06616211 4.17700195 C-29.37405691 0.1244113 -15.13061579 -0.01850327 0 0 Z M-67.13037109 72.64135742 C-70.71538184 75.6992541 -74.06991123 78.96441249 -77.42089844 82.2746582 C-78.06285156 82.84442383 -78.70480469 83.41418945 -79.36621094 84.0012207 C-93.26944988 96.61113509 -100.75493734 115.6986969 -104.95690346 133.5520401 C-107.00316056 143.98745382 -106.71720817 154.47895749 -106.71142578 165.06567383 C-106.71741845 167.26156847 -106.72422569 169.45746101 -106.73178101 171.65335083 C-106.74937623 177.59182162 -106.75413374 183.53023468 -106.75541258 189.46872902 C-106.75683879 193.18834144 -106.76111734 196.9079394 -106.76640701 200.62754822 C-106.78393639 212.96162605 -106.79324991 225.29566894 -106.79174607 237.62975937 C-106.7916262 238.62429191 -106.7916262 238.62429191 -106.79150391 239.63891602 C-106.79142214 240.30276273 -106.79134038 240.96660944 -106.79125614 241.65057272 C-106.79044459 252.39019245 -106.80955527 263.1296715 -106.83778064 273.8692506 C-106.86664117 284.93933978 -106.87994901 296.00935729 -106.87859309 307.07948446 C-106.87808594 313.27724105 -106.88363099 319.47483837 -106.90494919 325.67256165 C-106.92448205 331.51023976 -106.92435421 337.34760916 -106.90991592 343.18529892 C-106.90784503 345.31193881 -106.91242426 347.43859879 -106.92463684 349.56520462 C-107.05717012 374.26980156 -102.68651864 396.69431266 -88.69775391 417.5065918 C-85.07658926 422.52083163 -80.75722114 426.88496537 -76.42089844 431.2746582 C-75.56625 432.23758789 -75.56625 432.23758789 -74.69433594 433.2199707 C-62.08442155 447.12320964 -42.99685974 454.6086971 -25.14351654 458.81066322 C-14.70810282 460.85692033 -4.21659915 460.57096793 6.37011719 460.56518555 C8.56601183 460.57117822 10.76190437 460.57798545 12.95779419 460.58554077 C18.89626498 460.603136 24.83467804 460.60789351 30.77317238 460.60917234 C34.4927848 460.61059855 38.21238276 460.6148771 41.93199158 460.62016678 C54.26606941 460.63769615 66.60011229 460.64700968 78.93420273 460.64550583 C79.59722442 460.64542592 80.26024612 460.64534601 80.94335938 460.64526367 C81.93912944 460.64514103 81.93912944 460.64514103 82.95501608 460.64501591 C93.69463581 460.64420436 104.43411486 460.66331503 115.17369395 460.69154041 C126.24378314 460.72040093 137.31380065 460.73370878 148.38392782 460.73235285 C154.58168441 460.73184571 160.77928173 460.73739075 166.977005 460.75870895 C172.81468312 460.77824182 178.65205252 460.77811397 184.48974228 460.76367569 C186.61638217 460.7616048 188.74304215 460.76618402 190.86964798 460.77839661 C215.57424492 460.91092988 237.99875602 456.54027841 258.81103516 442.55151367 C263.82527499 438.93034903 268.18940873 434.61098091 272.57910156 430.2746582 C273.22105469 429.70489258 273.86300781 429.13512695 274.52441406 428.5480957 C288.427653 415.93818132 295.91314046 396.8506195 300.11510658 378.99727631 C302.16136369 368.56186258 301.87541129 358.07035892 301.86962891 347.48364258 C301.87562158 345.28774794 301.88242881 343.0918554 301.88998413 340.89596558 C301.90757936 334.95749479 301.91233687 329.01908173 301.9136157 323.08058739 C301.91504191 319.36097497 301.91932046 315.641377 301.92461014 311.92176819 C301.94213951 299.58769036 301.95145304 287.25364747 301.94994919 274.91955703 C301.94986928 274.25653534 301.94978937 273.59351365 301.94970703 272.91040039 C301.94958439 271.91463032 301.94958439 271.91463032 301.94945927 270.89874369 C301.94864772 260.15912395 301.96775839 249.41964491 301.99598376 238.68006581 C302.02484429 227.60997663 302.03815214 216.53995912 302.03679621 205.46983194 C302.03628907 199.27207535 302.04183411 193.07447803 302.06315231 186.87675476 C302.08268518 181.03907665 302.08255733 175.20170724 302.06811905 169.36401749 C302.06604816 167.2373776 302.07062738 165.11071761 302.08283997 162.98411179 C302.21537324 138.27951485 297.84472177 115.85500374 283.85595703 95.04272461 C280.23479239 90.02848477 275.91542427 85.66435103 271.57910156 81.2746582 C271.00933594 80.63270508 270.43957031 79.99075195 269.85253906 79.3293457 C257.24262468 65.42610676 238.15506286 57.94061931 220.30171967 53.73865318 C209.86630594 51.69239608 199.37480228 51.97834847 188.78808594 51.98413086 C186.5921913 51.97813819 184.39629875 51.97133095 182.20040894 51.96377563 C176.26193815 51.94618041 170.32352508 51.9414229 164.38503075 51.94014406 C160.66541833 51.93871785 156.94582036 51.9344393 153.22621155 51.92914963 C140.89213372 51.91162025 128.55809083 51.90230673 116.22400039 51.90381058 C115.5609787 51.90389049 114.89795701 51.9039704 114.21484375 51.90405273 C113.55099704 51.9041345 112.88715033 51.90421626 112.20318705 51.9043005 C101.46356731 51.90511205 90.72408827 51.88600138 79.98450917 51.857776 C68.91441999 51.82891547 57.84440248 51.81560763 46.7742753 51.81696355 C40.57651871 51.8174707 34.37892139 51.81192565 28.18119812 51.79060745 C22.34352001 51.77107459 16.5061506 51.77120243 10.66846085 51.78564072 C8.54182096 51.78771161 6.41516097 51.78313238 4.28855515 51.7709198 C-21.32310652 51.63352037 -46.58178338 56.21305208 -67.13037109 72.64135742 Z " fill="#B24775" transform="translate(158.4208984375,-0.274658203125)" />
<path d="M0 0 C5.14516305 3.3817417 9.93659276 7.21879296 14.69677734 11.11523438 C15.47021484 11.74558594 16.24365234 12.3759375 17.04052734 13.02539062 C21.7524084 17.00330559 25.84273334 21.30532629 29.69677734 26.11523438 C30.09767578 26.61490723 30.49857422 27.11458008 30.91162109 27.62939453 C47.74362198 48.87542532 58.64177699 73.97621899 60.57177734 101.19726562 C61.85231829 131.08989327 55.78557251 158.87109386 39.81201172 184.41845703 C36.43027002 189.56362008 32.59321876 194.35504979 28.69677734 199.11523438 C28.06642578 199.88867188 27.43607422 200.66210938 26.78662109 201.45898438 C22.80870612 206.17086543 18.50668543 210.26119038 13.69677734 214.11523438 C13.19710449 214.51613281 12.69743164 214.91703125 12.18261719 215.33007812 C-9.0634136 232.16207901 -34.16420727 243.06023402 -61.38525391 244.99023438 C-91.27788155 246.27077532 -119.05908214 240.20402954 -144.60644531 224.23046875 C-149.75160836 220.84872705 -154.54303807 217.01167579 -159.30322266 213.11523438 C-160.07666016 212.48488281 -160.85009766 211.85453125 -161.64697266 211.20507812 C-166.35885371 207.22716316 -170.44917866 202.92514246 -174.30322266 198.11523438 C-174.70412109 197.61556152 -175.10501953 197.11588867 -175.51806641 196.60107422 C-192.35006729 175.35504343 -203.2482223 150.25424976 -205.17822266 123.03320312 C-206.4587636 93.14057548 -200.39201782 65.35937489 -184.41845703 39.81201172 C-181.03671533 34.66684867 -177.19966407 29.87541896 -173.30322266 25.11523438 C-172.67287109 24.34179688 -172.04251953 23.56835938 -171.39306641 22.77148438 C-167.41515144 18.05960332 -163.11313074 13.96927837 -158.30322266 10.11523438 C-157.55371338 9.51388672 -157.55371338 9.51388672 -156.7890625 8.90039062 C-135.54303171 -7.93161026 -110.44223804 -18.82976527 -83.22119141 -20.75976562 C-53.32856376 -22.04030657 -25.54736317 -15.97356079 0 0 Z M-126.30322266 52.11523438 C-138.34044873 62.2123947 -146.43881513 77.45784664 -150.61572266 92.42773438 C-154.38581552 107.49713031 -153.86820449 124.56435682 -148.30322266 139.11523438 C-141.7097382 155.13070152 -132.1652792 169.26190957 -117.49072266 178.80273438 C-101.39966879 188.88836187 -85.57371677 193.11640103 -66.63916016 192.49023438 C-49.61546872 191.52194762 -34.09330529 184.45741766 -20.68603516 174.09179688 C-7.50370557 163.15694643 1.41284239 148.27619347 6.00927734 131.80273438 C9.77937021 116.73333844 9.26175917 99.66611193 3.69677734 85.11523438 C-2.89670711 69.09976723 -12.44116611 54.96855918 -27.11572266 45.42773438 C-43.20677652 35.34210688 -59.03272854 31.11406772 -77.96728516 31.74023438 C-96.01579754 32.76681169 -112.48757298 40.65503972 -126.30322266 52.11523438 Z " fill="#BE2F69" transform="translate(328.30322265625,143.884765625)" />
<path d="M0 0 C6.53912582 4.82436484 10.33081831 9.76971733 12.99609375 17.47265625 C14.88993719 23.78546772 14.49008577 30.36661982 12.74609375 36.66015625 C10.36059691 43.86123548 6.26111833 49.23647532 0.21484375 53.82421875 C-5.70623 57.84209022 -11.33047021 59.13252328 -18.37890625 59.78515625 C-26.21727723 59.10943461 -33.09125834 57.2830246 -39.22265625 52.20703125 C-44.63877912 46.93343793 -48.76823731 40.87870787 -50.47265625 33.421875 C-51.58838309 26.28375898 -50.76142 19.35709747 -47.77734375 12.76171875 C-44.22157801 6.42979366 -40.18036973 1.77972577 -33.8046875 -1.7421875 C-22.823075 -6.98129296 -10.43272059 -6.56591406 0 0 Z " fill="#A01D94" transform="translate(407.00390625,97.52734375)" />
</svg>
